<svg width="99.812042" height="99.807632" viewBox="0 0 99.812 99.8076" fill="none" xmlns="http://www.w3.org/2000/svg" xmlns:xlink="http://www.w3.org/1999/xlink">
	<desc>
			Created with Pixso.
	</desc>
	<defs/>
	<path id="Vector" d="M12.47 5L18.71 5Q20.78 5 22.25 3.53Q23.71 2.07 23.71 0L12.47 0C11.7 0 10.94 0.07 10.19 0.21C8.48 0.52 6.85 1.2 5.41 2.18C4.78 2.61 4.19 3.1 3.65 3.65C3.1 4.19 2.61 4.78 2.18 5.41C1.2 6.85 0.52 8.48 0.21 10.19C0.07 10.94 0 11.7 0 12.47L0 23.71Q2.07 23.71 3.53 22.24Q5 20.78 5 18.71L5 12.47Q5 12.08 5.03 11.7Q5.07 11.35 5.14 11.01Q5.3 10.21 5.22 9.47Q5.8 9 6.25 8.32Q6.45 8.03 6.67 7.76Q6.91 7.46 7.18 7.18Q7.46 6.91 7.76 6.67Q8.03 6.45 8.32 6.25Q9 5.8 9.47 5.22Q10.21 5.3 11.01 5.14Q11.35 5.07 11.7 5.03Q12.08 5 12.47 5ZM0 48.66L0 26.18Q2.07 26.18 3.53 27.65Q5 29.11 5 31.18L5 43.66Q5 45.73 3.53 47.2Q2.07 48.66 0 48.66ZM48.66 99.8L26.19 99.8Q26.19 97.73 27.65 96.27Q29.12 94.8 31.19 94.8L43.66 94.8Q45.73 94.8 47.2 96.27Q48.66 97.73 48.66 99.8ZM73.62 99.8L51.14 99.8Q51.14 97.73 52.6 96.27Q54.07 94.8 56.14 94.8L68.62 94.8Q70.69 94.8 72.15 96.27Q73.62 97.73 73.62 99.8ZM99.81 26.18L99.81 48.66Q97.74 48.66 96.27 47.2Q94.81 45.73 94.81 43.66L94.81 31.18Q94.81 29.11 96.27 27.65Q97.74 26.18 99.81 26.18ZM51.14 0L73.62 0Q73.62 2.07 72.15 3.53Q70.69 5 68.62 5L56.14 5Q54.07 5 52.6 3.53Q51.14 2.07 51.14 0ZM26.19 0L48.66 0Q48.66 2.07 47.2 3.53Q45.73 5 43.66 5L31.19 5Q29.12 5 27.65 3.53Q26.19 2.07 26.19 0ZM76.09 0L87.33 0C88.1 0 88.86 0.07 89.61 0.21C91.33 0.52 92.95 1.2 94.39 2.18C95.02 2.61 95.61 3.1 96.15 3.65C96.7 4.19 97.19 4.78 97.62 5.41C98.6 6.85 99.28 8.48 99.6 10.19C99.74 10.94 99.81 11.7 99.81 12.47L99.81 23.71Q97.74 23.71 96.27 22.24Q94.81 20.78 94.81 18.71L94.81 12.47Q94.81 12.08 94.77 11.7Q94.73 11.35 94.66 11.01Q94.5 10.21 94.58 9.47Q94 9 93.55 8.32Q93.36 8.03 93.14 7.76Q92.89 7.46 92.62 7.18Q92.34 6.91 92.05 6.67Q91.77 6.45 91.48 6.25Q90.81 5.8 90.33 5.22Q89.59 5.3 88.8 5.14Q88.45 5.07 88.1 5.03Q87.72 5 87.33 5L81.09 5Q79.02 5 77.56 3.53Q76.09 2.07 76.09 0ZM99.81 51.14L99.81 62.37L95.92 58.49L94.81 57.38L94.81 57.37L93.8 56.37L89.91 52.48C89.37 51.94 88.78 51.45 88.15 51.02C88.11 50.99 88.06 50.95 88.01 50.92C85.98 49.57 83.57 48.83 81.09 48.83C80.32 48.83 79.56 48.9 78.81 49.04C77.1 49.36 75.47 50.03 74.03 51.02C73.41 51.45 72.82 51.94 72.27 52.48L68.39 56.37L67.38 57.37L66.26 58.49L65.91 58.84L62.38 62.37L58.84 58.84L53.44 53.44Q54.9 51.97 56.97 51.97Q59.04 51.97 60.51 53.44L62.53 55.46Q63.55 54.91 64.8 54.9Q64.82 52.86 66.26 51.42L68.74 48.95Q69.37 48.31 70.07 47.74Q70.71 47.22 71.4 46.76Q72.94 45.73 74.74 45.95Q75.85 44.53 77.67 44.17Q78.5 44 79.34 43.92Q80.21 43.83 81.09 43.83Q81.97 43.83 82.85 43.92Q83.69 44 84.52 44.17Q86.55 44.57 87.7 46.3Q88.85 48.02 88.44 50.05Q88.4 50.23 88.36 50.41L90.79 46.76Q91.49 47.23 92.15 47.77Q92.83 48.32 93.45 48.95L95.92 51.42Q96.33 51.83 96.62 52.28Q97.98 51.14 99.81 51.14ZM38.66 74.85L61.14 74.85Q61.14 76.92 59.67 78.39Q58.21 79.85 56.14 79.85L43.66 79.85Q41.59 79.85 40.13 78.39Q38.66 76.92 38.66 74.85ZM13.71 74.85L36.19 74.85Q36.19 76.92 34.72 78.39Q33.26 79.85 31.19 79.85L18.71 79.85Q16.64 79.85 15.17 78.39Q13.71 76.92 13.71 74.85ZM21.41 53.44L7.19 67.66Q5.72 66.19 5.72 64.12Q5.72 62.05 7.19 60.59L14.34 53.44Q15.8 51.97 17.88 51.97Q19.95 51.97 21.41 53.44ZM53.36 53.35Q54.82 51.89 54.82 49.82Q54.82 47.75 53.36 46.28L49.78 42.71Q49.16 42.08 48.48 41.53Q47.82 41 47.12 40.53Q45.57 39.5 43.78 39.72Q42.67 38.29 40.85 37.93Q40.02 37.76 39.18 37.68Q38.31 37.59 37.42 37.59Q36.54 37.59 35.67 37.68Q34.83 37.76 34 37.93Q32.18 38.29 31.07 39.72Q29.28 39.5 27.73 40.53Q27.04 40.98 26.4 41.5Q25.71 42.07 25.07 42.71L21.49 46.28Q20.03 47.75 20.03 49.82Q20.03 51.89 21.49 53.35L28.6 46.24C29.15 45.7 29.74 45.21 30.36 44.78C31.8 43.79 33.43 43.12 35.14 42.8C35.89 42.66 36.65 42.59 37.42 42.59C38.19 42.59 38.96 42.66 39.7 42.8C41.42 43.12 43.05 43.79 44.48 44.78C45.11 45.21 45.7 45.7 46.25 46.24L53.36 53.35L53.36 53.35ZM7.11 67.74L5 69.85L4.8 70.05L1.43 73.42L0 74.85L0 51.14Q2.07 51.14 3.53 52.6Q5 54.07 5 56.14L5 66.47Q6.17 66.81 7.11 67.74ZM7.07 74.85L11.23 74.85Q11.23 76.92 9.77 78.39Q8.3 79.85 6.23 79.85L4.85 79.85Q5 80.44 5 81.09L5 87.33Q5 87.71 5.03 88.1Q5.07 88.45 5.14 88.79Q5.3 89.58 5.22 90.33Q5.8 90.8 6.25 91.47Q6.45 91.77 6.67 92.04Q6.91 92.34 7.18 92.61Q7.46 92.89 7.76 93.13Q8.03 93.35 8.32 93.55Q9 93.99 9.47 94.58Q10.21 94.5 11.01 94.66Q11.35 94.73 11.7 94.76Q12.08 94.8 12.47 94.8L18.71 94.8Q20.78 94.8 22.25 96.27Q23.71 97.73 23.71 99.8L12.47 99.8C11.7 99.8 10.94 99.73 10.19 99.59C8.48 99.27 6.85 98.6 5.41 97.61C4.78 97.18 4.19 96.69 3.65 96.15C3.1 95.6 2.61 95.01 2.18 94.39C1.2 92.95 0.52 91.32 0.21 89.61C0.07 88.86 0 88.1 0 87.33L0 74.85L7.07 74.85ZM63.62 74.85L74.85 74.85L69.85 69.85L67.74 67.74Q67.94 67.54 68.14 67.37L67.93 67.37Q67.8 67.52 67.66 67.66L67.38 67.37L65.91 65.91L62.38 62.37L76.73 62.37Q76.73 64.45 75.27 65.91Q74.6 66.58 73.8 66.94Q74.34 67.27 74.81 67.74L78.39 71.32Q79.85 72.78 79.85 74.85Q79.85 76.92 78.39 78.39Q77.69 79.09 76.77 79.47Q75.85 79.85 74.85 79.85L68.62 79.85Q66.54 79.85 65.08 78.39Q63.62 76.92 63.62 74.85ZM85.45 62.37Q85.45 64.45 86.91 65.91Q88.38 67.37 90.45 67.37L94.81 67.37L94.81 68.61Q94.81 70.68 96.27 72.15Q97.74 73.61 99.81 73.61L99.81 62.37L85.45 62.37ZM99.81 76.09L99.81 87.33C99.81 88.1 99.74 88.86 99.6 89.61C99.28 91.32 98.6 92.95 97.62 94.39C97.19 95.01 96.7 95.6 96.15 96.15C95.61 96.69 95.02 97.18 94.39 97.61C92.95 98.6 91.33 99.27 89.61 99.59C88.86 99.73 88.1 99.8 87.33 99.8L76.09 99.8Q76.09 97.73 77.56 96.27Q79.02 94.8 81.09 94.8L87.33 94.8Q87.72 94.8 88.1 94.76Q88.45 94.73 88.8 94.66Q89.59 94.5 90.33 94.58Q90.81 93.99 91.48 93.55Q91.77 93.35 92.04 93.13Q92.34 92.89 92.62 92.61Q92.89 92.34 93.14 92.04Q93.36 91.77 93.55 91.47Q94 90.8 94.58 90.33Q94.5 89.58 94.66 88.79Q94.73 88.45 94.77 88.1Q94.81 87.72 94.81 87.33L94.81 81.09Q94.81 79.02 96.27 77.55Q97.74 76.09 99.81 76.09ZM62.39 19.95L62.38 19.95Q60.31 19.95 58.84 21.41Q57.38 22.88 57.38 24.95Q57.38 27.02 58.84 28.48Q60.31 29.95 62.38 29.95L62.39 29.95L62.41 29.95L62.42 29.95L62.44 29.95Q64.51 29.95 65.98 28.48Q67.44 27.02 67.44 24.95Q67.44 22.88 65.98 21.41Q64.51 19.95 62.44 19.95L62.42 19.95L62.41 19.95L62.39 19.95Z" fill="#B5B5B5" fill-opacity="1.000000" fill-rule="evenodd"/>
</svg>
