<svg width="12.257141" height="17.000000" viewBox="0 0 12.2571 17" fill="current" xmlns="http://www.w3.org/2000/svg" xmlns:xlink="http://www.w3.org/1999/xlink">
	<path id="Vector" d="M10.63 7.22L10.63 4.53C10.63 3.31 10.15 2.14 9.28 1.29C8.44 0.45 7.34 0 6.18 0C6.16 0 6.14 0 6.12 0C3.64 0 1.62 2.03 1.62 4.53L1.62 7.22C0.68 7.34 0 8.12 0 9.07L0 15.12C0 16.15 0.82 17 1.84 17L10.4 17C11.43 17 12.25 16.15 12.25 15.12L12.25 9.07C12.25 8.13 11.56 7.34 10.63 7.22ZM2.33 4.53L2.34 4.53C2.34 2.43 4.04 0.7 6.12 0.7L6.13 0.7C7.12 0.7 8.07 1.09 8.77 1.79C9.5 2.52 9.91 3.51 9.9 4.53L9.9 7.23L9.11 7.23L9.11 4.53C9.12 3.71 8.79 2.93 8.21 2.35C7.66 1.8 6.92 1.49 6.15 1.49L6.13 1.49C4.47 1.49 3.13 2.86 3.13 4.53L3.13 7.23L2.33 7.23L2.33 4.53ZM8.39 4.53L8.39 7.23L3.85 7.23L3.85 4.53C3.85 3.26 4.87 2.22 6.13 2.22L6.15 2.22C6.73 2.22 7.3 2.45 7.71 2.87C8.15 3.31 8.4 3.91 8.39 4.53ZM11.56 15.13C11.56 15.76 11.05 16.27 10.42 16.27L1.86 16.27C1.23 16.27 0.72 15.76 0.72 15.13L0.72 9.09C0.72 8.46 1.23 7.95 1.86 7.95L10.42 7.95C11.05 7.95 11.56 8.46 11.56 9.09L11.56 15.13Z" fill="current" fill-opacity="1.000000" fill-rule="nonzero"/>
</svg>
