<svg width="48.000000" height="48.000000" viewBox="0 0 48 48" fill="none" xmlns="http://www.w3.org/2000/svg" xmlns:xlink="http://www.w3.org/1999/xlink">
	<desc>
			Created with Pixso.
	</desc>
	<defs/>
	<path id="Logo" d="M24 48C37.25 48 48 37.25 48 24C48 10.74 37.25 0 24 0C10.74 0 0 10.74 0 24C0 29.53 1.87 34.63 5.02 38.69L10.31 18.7C12.51 10.03 18.23 5.54 27.41 5.54L30.58 5.54C37.03 5.54 41.77 11.6 40.22 17.87C39.94 18.99 39.42 20.04 38.7 20.94L36 24.29C35.31 25.14 35.06 26.27 35.32 27.34L36.14 30.71C36.57 32.45 36.49 34.27 35.92 35.97C33.97 41.75 28.56 45.64 22.46 45.64L13.61 45.64C16.75 47.15 20.27 48 24 48ZM23.16 13.2C21.67 13.2 20.37 14.21 19.99 15.65L18.16 22.64L25.4 22.64C28.08 22.64 30.43 20.83 31.11 18.24L31.26 17.64C31.85 15.4 30.16 13.2 27.84 13.2L23.16 13.2ZM23.92 15.33C23.07 15.33 22.32 15.9 22.11 16.72L21.11 20.52L25.11 20.52C26.59 20.52 27.89 19.52 28.27 18.1L28.35 17.77C28.68 16.53 27.74 15.33 26.46 15.33L23.92 15.33ZM23.6 29.01L18.92 29.01C17.43 29.01 16.12 30.01 15.75 31.46L13.91 38.44L21.16 38.44C23.84 38.44 26.18 36.63 26.86 34.04L27.02 33.44C27.61 31.2 25.91 29.01 23.6 29.01ZM22.21 31.13L19.67 31.13C18.82 31.13 18.08 31.7 17.86 32.53L16.86 36.32L20.87 36.32C22.35 36.32 23.64 35.33 24.02 33.9L24.11 33.57C24.43 32.34 23.5 31.13 22.21 31.13Z" fill="#FFFFFF" fill-opacity="1.000000" fill-rule="evenodd"/>
</svg>
