<svg width="17.000000" height="11.647057" viewBox="0 0 17 11.6471" fill="current" xmlns="http://www.w3.org/2000/svg" xmlns:xlink="http://www.w3.org/1999/xlink">
	<path id="Vector" d="M1.49 0L15.5 0C16.32 0 17 0.67 17 1.49L17 10.15C17 10.97 16.32 11.64 15.5 11.64L1.49 11.64C0.67 11.64 0 10.97 0 10.15L0 1.49C0 0.67 0.67 0 1.49 0ZM1.68 0.99L1.88 1.16L7.9 6.17C8.25 6.45 8.74 6.45 9.09 6.17L15.11 1.16L15.31 0.99L1.68 0.99ZM16 1.71L11.1 5.79L16 9.06L16 1.71ZM1.49 10.65L15.5 10.65C15.74 10.65 15.94 10.47 15.99 10.25L10.3 6.46L9.73 6.93C9.37 7.23 8.93 7.38 8.49 7.38C8.06 7.38 7.62 7.23 7.26 6.93L6.69 6.46L1 10.25C1.05 10.47 1.25 10.65 1.49 10.65ZM0.99 9.06L5.89 5.79L0.99 1.71L0.99 9.06Z" fill="current" fill-opacity="1.000000" fill-rule="nonzero"/>
</svg>
