<svg width="16.000000" height="16.000000" viewBox="0 0 16 16" fill="none" xmlns="http://www.w3.org/2000/svg" xmlns:xlink="http://www.w3.org/1999/xlink">
	<desc>
			Created with Pixso.
	</desc>
	<defs>
		<clipPath id="clip2_548">
			<rect id="search-outline" rx="-0.500000" width="15.000000" height="15.000000" transform="translate(0.500000 0.500000)" fill="white" fill-opacity="0"/>
		</clipPath>
	</defs>
	<rect id="search-outline" rx="-0.500000" width="15.000000" height="15.000000" transform="translate(0.500000 0.500000)" fill="#FFFFFF" fill-opacity="0"/>
	<g clip-path="url(#clip2_548)">
		<path id="Vector" d="M4.18 2.82C3.37 3.36 2.74 4.13 2.37 5.03C2 5.92 1.9 6.91 2.09 7.86C2.28 8.81 2.75 9.69 3.43 10.38C4.12 11.06 4.99 11.53 5.95 11.72C6.9 11.91 7.89 11.81 8.78 11.44C9.68 11.07 10.45 10.44 10.99 9.63C11.53 8.82 11.81 7.87 11.81 6.9C11.81 5.6 11.3 4.35 10.38 3.43C9.45 2.51 8.21 2 6.9 2C5.93 2 4.98 2.28 4.18 2.82Z" stroke="#52525B" stroke-opacity="1.000000" stroke-width="1.500000"/>
		<path id="Vector" d="M10.57 10.57L14 14" stroke="#52525B" stroke-opacity="1.000000" stroke-width="1.500000" stroke-linecap="round"/>
	</g>
</svg>
