<svg width="12.578125" height="12.578125" viewBox="0 0 12.5781 12.5781" fill="none" xmlns="http://www.w3.org/2000/svg" xmlns:xlink="http://www.w3.org/1999/xlink">
	<desc>
			Created with Pixso.
	</desc>
	<defs/>
	<path id="Vector" d="M6.28 2.51C6.12 2.51 5.97 2.45 5.86 2.33C5.75 2.22 5.68 2.07 5.68 1.91L5.68 0.6C5.68 0.44 5.75 0.28 5.86 0.17C5.97 0.06 6.12 0 6.28 0C6.44 0 6.6 0.06 6.71 0.17C6.82 0.28 6.89 0.44 6.89 0.6L6.89 1.91C6.89 2.07 6.82 2.22 6.71 2.33C6.6 2.45 6.44 2.51 6.28 2.51ZM6.28 12.57C6.12 12.57 5.97 12.51 5.86 12.4C5.75 12.28 5.68 12.13 5.68 11.97L5.68 10.66C5.68 10.5 5.75 10.35 5.86 10.23C5.97 10.12 6.12 10.06 6.28 10.06C6.44 10.06 6.6 10.12 6.71 10.23C6.82 10.35 6.89 10.5 6.89 10.66L6.89 11.97C6.89 12.13 6.82 12.28 6.71 12.4C6.6 12.51 6.44 12.57 6.28 12.57ZM9.38 3.79C9.26 3.79 9.14 3.76 9.04 3.69C8.94 3.62 8.87 3.53 8.82 3.42C8.78 3.31 8.76 3.19 8.79 3.07C8.81 2.96 8.87 2.85 8.95 2.77L9.88 1.84C9.99 1.73 10.15 1.67 10.3 1.67C10.46 1.67 10.61 1.73 10.73 1.84C10.84 1.95 10.9 2.11 10.9 2.26C10.9 2.42 10.84 2.57 10.73 2.69L9.8 3.62C9.75 3.67 9.68 3.72 9.61 3.75C9.54 3.78 9.46 3.79 9.38 3.79ZM2.26 10.91C2.14 10.91 2.03 10.87 1.93 10.81C1.83 10.74 1.75 10.65 1.71 10.54C1.66 10.43 1.65 10.31 1.67 10.19C1.7 10.07 1.75 9.96 1.84 9.88L2.77 8.95C2.82 8.9 2.89 8.85 2.96 8.82C3.03 8.79 3.11 8.77 3.19 8.77C3.27 8.77 3.35 8.79 3.42 8.82C3.5 8.85 3.57 8.89 3.62 8.95C3.68 9 3.72 9.07 3.75 9.14C3.78 9.22 3.8 9.3 3.8 9.38C3.8 9.46 3.78 9.53 3.75 9.61C3.72 9.68 3.67 9.75 3.62 9.8L2.69 10.73C2.63 10.79 2.57 10.83 2.49 10.86C2.42 10.89 2.34 10.91 2.26 10.91ZM11.97 6.89L10.66 6.89C10.5 6.89 10.35 6.82 10.23 6.71C10.12 6.6 10.06 6.44 10.06 6.28C10.06 6.12 10.12 5.97 10.23 5.86C10.35 5.75 10.5 5.68 10.66 5.68L11.97 5.68C12.13 5.68 12.28 5.75 12.4 5.86C12.51 5.97 12.57 6.12 12.57 6.28C12.57 6.44 12.51 6.6 12.4 6.71C12.28 6.82 12.13 6.89 11.97 6.89ZM1.91 6.89L0.6 6.89C0.44 6.89 0.28 6.82 0.17 6.71C0.06 6.6 0 6.44 0 6.28C0 6.12 0.06 5.97 0.17 5.86C0.28 5.75 0.44 5.68 0.6 5.68L1.91 5.68C2.07 5.68 2.22 5.75 2.33 5.86C2.45 5.97 2.51 6.12 2.51 6.28C2.51 6.44 2.45 6.6 2.33 6.71C2.22 6.82 2.07 6.89 1.91 6.89ZM10.31 10.91C10.23 10.91 10.15 10.89 10.08 10.86C10 10.83 9.94 10.79 9.88 10.73L8.95 9.8C8.84 9.69 8.78 9.54 8.78 9.38C8.78 9.22 8.85 9.07 8.96 8.96C9.07 8.85 9.22 8.78 9.38 8.78C9.54 8.78 9.69 8.84 9.8 8.95L10.73 9.88C10.82 9.96 10.87 10.07 10.9 10.19C10.92 10.31 10.91 10.43 10.86 10.54C10.82 10.65 10.74 10.74 10.64 10.81C10.54 10.87 10.42 10.91 10.31 10.91ZM3.19 3.79C3.11 3.79 3.03 3.78 2.96 3.75C2.89 3.72 2.82 3.67 2.77 3.62L1.84 2.69C1.73 2.57 1.67 2.42 1.67 2.26C1.67 2.11 1.73 1.95 1.84 1.84C1.95 1.73 2.11 1.67 2.26 1.67C2.42 1.67 2.57 1.73 2.69 1.84L3.62 2.77C3.7 2.85 3.76 2.96 3.78 3.07C3.8 3.19 3.79 3.31 3.75 3.42C3.7 3.53 3.62 3.62 3.52 3.69C3.43 3.76 3.31 3.79 3.19 3.79ZM6.28 9.07C5.73 9.07 5.19 8.91 4.73 8.6C4.28 8.3 3.92 7.86 3.71 7.35C3.5 6.84 3.44 6.28 3.55 5.74C3.66 5.2 3.92 4.7 4.31 4.31C4.7 3.92 5.2 3.66 5.74 3.55C6.28 3.44 6.84 3.5 7.35 3.71C7.86 3.92 8.3 4.28 8.6 4.73C8.91 5.19 9.07 5.73 9.07 6.28C9.07 7.02 8.78 7.73 8.26 8.26C7.73 8.78 7.02 9.07 6.28 9.07Z" fill="#52535F" fill-opacity="1.000000" fill-rule="nonzero"/>
</svg>
