<svg width="158.000000" height="36.000000" viewBox="0 0 158 36" fill="none" xmlns="http://www.w3.org/2000/svg" xmlns:xlink="http://www.w3.org/1999/xlink">
	<desc>
			Created with Pixso.
	</desc>
	<defs/>
	<path id="Meta" d="M45 9.53L45 27.81L46.97 27.81L46.97 13.32L53.1 22.17L53.2 22.17L59.33 13.35L59.33 27.81L61.31 27.81L61.31 9.53L59.58 9.53L53.16 18.8L46.73 9.53L45 9.53ZM85.65 27.96C84.46 27.96 83.55 27.62 82.9 26.93C82.26 26.24 81.94 25.26 81.94 23.98L81.94 16.5L79.49 16.5L79.49 14.66L80.11 14.66C80.67 14.66 81.12 14.48 81.45 14.12C81.78 13.74 81.94 13.27 81.94 12.72L81.94 11.61L83.79 11.61L83.79 14.66L86.71 14.66L86.71 16.5L83.79 16.5L83.79 23.98C83.79 24.43 83.86 24.82 83.99 25.16C84.12 25.49 84.35 25.75 84.66 25.95C84.99 26.14 85.42 26.24 85.97 26.24C86.1 26.24 86.26 26.23 86.44 26.22C86.62 26.2 86.78 26.19 86.91 26.17L86.91 27.81C86.71 27.86 86.49 27.9 86.24 27.91C85.99 27.94 85.8 27.96 85.65 27.96ZM68.05 27.22Q68.48 27.48 68.95 27.66Q70.09 28.11 71.41 28.11C72.32 28.11 73.14 27.96 73.88 27.67C74.64 27.36 75.29 26.95 75.83 26.46C76.38 25.96 76.78 25.41 77.04 24.82L75.46 23.98C75.05 24.67 74.51 25.24 73.86 25.7C73.2 26.16 72.38 26.39 71.41 26.39Q70.86 26.39 70.34 26.27L70.34 26.27L70.34 26.27Q69.67 26.11 69.04 25.75C68.31 25.33 67.74 24.73 67.31 23.96C66.98 23.33 66.8 22.61 66.79 21.8L77.22 21.8C77.25 21.59 77.27 21.38 77.29 21.19C77.31 20.97 77.31 20.79 77.31 20.62Q77.31 20.06 77.22 19.51L77.22 19.51Q77.11 18.92 76.89 18.34C76.61 17.59 76.21 16.92 75.68 16.33Q75.44 16.05 75.17 15.81L75.17 15.81Q74.55 15.26 73.76 14.9C73.02 14.54 72.17 14.36 71.21 14.36Q69.96 14.36 68.88 14.79L68.88 14.79Q68.4 14.97 67.95 15.25C66.99 15.84 66.24 16.65 65.68 17.68Q64.84 19.2 64.84 21.19Q64.84 22.97 65.54 24.43L65.54 24.43Q65.62 24.59 65.7 24.75C66.28 25.79 67.06 26.62 68.05 27.22ZM91.5 27.64C92.16 27.95 92.91 28.11 93.75 28.11C94.52 28.11 95.23 27.99 95.87 27.76C96.53 27.52 97.1 27.2 97.58 26.81C97.91 26.53 98.18 26.24 98.39 25.93L98.39 27.81L100.25 27.81L100.25 18.78C100.25 17.91 100.03 17.15 99.61 16.5Q99.44 16.23 99.24 15.99Q98.68 15.34 97.85 14.93C97.11 14.55 96.25 14.36 95.28 14.36C94.54 14.36 93.82 14.5 93.13 14.78C92.44 15.04 91.82 15.4 91.28 15.86C90.75 16.32 90.36 16.83 90.12 17.38L91.8 18.29C92.09 17.65 92.55 17.14 93.16 16.74C93.77 16.33 94.47 16.13 95.28 16.13C96.2 16.13 96.95 16.37 97.53 16.87C98.11 17.36 98.39 18 98.39 18.78L98.39 19.46L93.6 20.25C92.63 20.42 91.83 20.7 91.21 21.09C90.58 21.48 90.12 21.96 89.82 22.54C89.52 23.09 89.38 23.71 89.38 24.4C89.38 25.12 89.57 25.76 89.94 26.32C90.32 26.87 90.84 27.31 91.5 27.64ZM98.39 21.13L98.39 22.12C98.39 22.92 98.21 23.65 97.83 24.3C97.45 24.96 96.92 25.48 96.25 25.87C95.57 26.25 94.78 26.44 93.87 26.44C93.13 26.44 92.52 26.23 92.04 25.83C91.58 25.42 91.35 24.92 91.35 24.33C91.35 23.72 91.56 23.2 91.97 22.76C92.4 22.32 93.09 22.01 94.05 21.85L98.39 21.13ZM66.82 20.08Q66.92 19.21 67.28 18.51C67.68 17.74 68.22 17.14 68.91 16.72Q69.46 16.39 70.05 16.23L70.05 16.23Q70.61 16.08 71.21 16.08Q72.02 16.08 72.72 16.35Q73.09 16.5 73.44 16.72C74.09 17.13 74.6 17.69 74.94 18.41C75.2 18.92 75.33 19.47 75.33 20.08L66.82 20.08Z" fill="#141624" fill-opacity="1.000000" fill-rule="evenodd"/>
	<path id="Blog" d="M122.19 9.23L122.19 27.81L125.9 27.81L125.9 9.23L122.19 9.23ZM105.4 9.53L105.4 27.81L113.19 27.81Q116.4 27.81 118.2 26.32Q118.76 25.85 119.14 25.28L119.14 25.28Q120 23.98 120 22.12Q120 21.11 119.71 20.2Q119.41 19.27 118.62 18.49C118.43 18.29 118.21 18.11 117.95 17.94C118.2 17.71 118.41 17.45 118.57 17.19C119.02 16.45 119.24 15.68 119.24 14.88C119.24 13.75 119 12.79 118.52 12.01C118.04 11.2 117.35 10.59 116.45 10.17Q115.09 9.53 113.19 9.53L105.4 9.53ZM113.46 16.4L109.23 16.4L109.23 12.72L113.46 12.72Q114.18 12.72 114.66 13.06L114.66 13.06Q114.77 13.14 114.87 13.23Q115.03 13.38 115.15 13.57Q115.41 13.98 115.41 14.56C115.41 15.12 115.23 15.57 114.87 15.91Q114.8 15.97 114.73 16.03Q114.23 16.4 113.46 16.4ZM135.3 28.11C133.97 28.11 132.75 27.81 131.65 27.2Q130.79 26.72 130.12 26.07Q129.5 25.47 129.03 24.72C128.39 23.66 128.06 22.45 128.06 21.11C128.06 19.75 128.39 18.55 129.03 17.5Q129.5 16.76 130.12 16.16Q130.79 15.5 131.65 15.03C132.75 14.42 133.97 14.12 135.3 14.12Q136.85 14.12 138.17 14.66Q138.56 14.82 138.94 15.03C140.02 15.63 140.89 16.46 141.53 17.5C142.19 18.55 142.52 19.75 142.52 21.11C142.52 22.45 142.19 23.66 141.53 24.72C140.89 25.77 140.02 26.59 138.94 27.2Q138.56 27.41 138.17 27.57Q136.85 28.11 135.3 28.11ZM148.43 32.7Q149.77 33.21 151.32 33.21C152.63 33.21 153.77 32.95 154.76 32.43C155.76 31.9 156.55 31.18 157.13 30.24Q157.33 29.93 157.48 29.59Q158 28.46 158 27.1L158 14.41L154.54 14.41L154.54 15.82C154.13 15.34 153.67 14.97 153.15 14.71C152.43 14.31 151.58 14.12 150.61 14.12C149.37 14.12 148.27 14.4 147.3 14.95C146.32 15.51 145.56 16.28 145 17.26C144.44 18.22 144.16 19.34 144.16 20.6C144.16 21.86 144.44 22.99 145 23.98Q145.39 24.66 145.91 25.21Q146.52 25.85 147.32 26.32C148.31 26.87 149.43 27.15 150.68 27.15Q152.14 27.15 153.23 26.61C153.62 26.41 153.97 26.15 154.29 25.83L154.29 27.1C154.29 27.67 154.17 28.17 153.92 28.6C153.69 29.02 153.35 29.34 152.91 29.56Q152.24 29.9 151.32 29.9C150.55 29.9 149.88 29.72 149.32 29.36C148.76 29 148.39 28.51 148.21 27.89L144.78 29.09C145.06 29.92 145.51 30.64 146.14 31.25C146.78 31.87 147.54 32.35 148.43 32.7ZM135.3 24.79C135.98 24.79 136.56 24.64 137.06 24.33C137.57 24.02 137.96 23.58 138.24 23.03C138.54 22.47 138.69 21.83 138.69 21.11C138.69 20.39 138.54 19.76 138.24 19.22C137.96 18.67 137.57 18.23 137.06 17.92C136.56 17.59 135.98 17.43 135.3 17.43Q134.46 17.43 133.79 17.77Q133.66 17.84 133.53 17.92C133.01 18.23 132.61 18.67 132.31 19.22Q131.89 20.03 131.89 21.11Q131.89 22.19 132.31 23.03C132.61 23.58 133.01 24.02 133.53 24.33Q133.6 24.38 133.68 24.42Q134.39 24.79 135.3 24.79ZM152.83 23.42C152.37 23.68 151.83 23.81 151.2 23.81C150.57 23.81 150.01 23.68 149.52 23.42C149.04 23.14 148.66 22.77 148.38 22.29Q147.99 21.58 147.99 20.65Q147.99 19.69 148.38 18.98Q148.64 18.52 149.02 18.19Q149.25 18 149.52 17.85C150.01 17.57 150.57 17.43 151.2 17.43C151.81 17.43 152.35 17.57 152.81 17.85Q153.04 17.98 153.24 18.16Q153.63 18.49 153.89 18.98C154.16 19.45 154.29 20.01 154.29 20.65C154.29 21.28 154.16 21.84 153.89 22.32Q153.7 22.69 153.41 22.98Q153.16 23.23 152.83 23.42ZM113.63 24.5L109.23 24.5L109.23 19.71L113.63 19.71C114.4 19.71 115.02 19.93 115.48 20.38Q115.7 20.58 115.85 20.83Q116.17 21.37 116.17 22.12Q116.17 22.81 115.88 23.33L115.88 23.33Q115.72 23.61 115.48 23.84C115.02 24.28 114.4 24.5 113.63 24.5Z" fill="#141624" fill-opacity="1.000000" fill-rule="evenodd"/>
	<path id="Union" d="M18 36C27.94 36 36 27.94 36 18C36 8.05 27.94 0 18 0C8.05 0 0 8.05 0 18C0 22.15 1.4 25.97 3.76 29.02L7.73 14.02C9.38 7.52 13.67 4.15 20.56 4.15L22.93 4.15C27.77 4.15 31.33 8.7 30.16 13.4C29.96 14.24 29.57 15.03 29.02 15.7L27 18.21C26.48 18.86 26.29 19.7 26.49 20.51L27.1 23.03C27.42 24.33 27.36 25.7 26.94 26.98C25.48 31.31 21.42 34.23 16.85 34.23L10.2 34.23C12.56 35.36 15.2 36 18 36ZM17.37 9.9C16.25 9.9 15.28 10.66 14.99 11.74L13.62 16.98L19.05 16.98C21.06 16.98 22.82 15.62 23.33 13.68L23.45 13.23C23.89 11.55 22.62 9.9 20.88 9.9L17.37 9.9ZM17.94 11.49C17.3 11.49 16.74 11.92 16.58 12.54L15.83 15.39L18.83 15.39C19.94 15.39 20.92 14.64 21.2 13.57L21.26 13.32C21.51 12.4 20.81 11.49 19.84 11.49L17.94 11.49ZM17.7 21.75L14.19 21.75C13.07 21.75 12.09 22.51 11.81 23.59L10.43 28.83L15.87 28.83C17.88 28.83 19.63 27.47 20.14 25.53L20.26 25.08C20.7 23.4 19.43 21.75 17.7 21.75ZM16.66 23.35L14.75 23.35C14.12 23.35 13.56 23.78 13.39 24.39L12.64 27.24L15.65 27.24C16.76 27.24 17.73 26.49 18.01 25.42L18.08 25.18C18.32 24.25 17.62 23.35 16.66 23.35Z" fill="#141624" fill-opacity="1.000000" fill-rule="evenodd"/>
</svg>
