<svg width="24.000000" height="24.000000" viewBox="0 0 24 24" fill="none" xmlns="http://www.w3.org/2000/svg" xmlns:xlink="http://www.w3.org/1999/xlink">
	<desc>
			Created with Pixso.
	</desc>
	<defs/>
	<rect id="icon/outline/moon" rx="11.500000" width="23.000000" height="23.000000" transform="translate(0.500000 0.500000)" fill="#FFFFFF" fill-opacity="0"/>
	<path id="Vector" d="M12.46 22.75C12.28 22.75 12.11 22.75 11.95 22.74C6.34 22.49 1.66 17.98 1.27 12.48C0.93 7.75 3.66 3.35 8.06 1.5C9.31 0.98 9.97 1.37 10.25 1.66C10.53 1.95 10.93 2.6 10.4 3.79C9.94 4.85 9.71 5.98 9.72 7.13C9.74 11.57 13.43 15.33 17.92 15.5C18.56 15.54 19.2 15.49 19.83 15.37C21.1 15.14 21.66 15.63 21.88 15.97C21.89 15.98 21.9 16 21.9 16C21.92 16.02 21.93 16.04 21.94 16.07C22.14 16.43 22.31 17.14 21.55 18.16C19.43 21.06 16.06 22.75 12.46 22.75ZM19.82 17.92C17.88 20.14 15.02 21.38 12 21.24C7.16 21.03 3.1 17.12 2.76 12.37C2.5 8.55 4.56 4.96 7.95 3.21C8.18 3.09 8.41 2.98 8.65 2.87C8.91 2.77 9.07 2.75 9.16 2.75C9.15 2.83 9.13 2.98 9.03 3.2C8.93 3.44 8.83 3.68 8.75 3.92C8.39 4.96 8.21 6.04 8.21 7.16C8.24 12.37 12.56 16.81 17.84 17.02C18.33 17.04 18.82 17.02 19.31 16.97C19.57 16.95 19.83 16.91 20.08 16.87C20.33 16.82 20.49 16.83 20.58 16.83C20.55 16.91 20.49 17.07 20.33 17.28C20.17 17.5 20 17.71 19.82 17.92Z" fill="#090D1F" fill-opacity="1.000000" fill-rule="evenodd"/>
	<g opacity="0.000000"/>
</svg>
